<svg version="1.1" xmlns="http://www.w3.org/2000/svg" width="530" height="530"><rect x="40" y="40" width="10" height="10" /><rect x="50" y="40" width="10" height="10" /><rect x="60" y="40" width="10" height="10" /><rect x="70" y="40" width="10" height="10" /><rect x="80" y="40" width="10" height="10" /><rect x="90" y="40" width="10" height="10" /><rect x="100" y="40" width="10" height="10" /><rect x="140" y="40" width="10" height="10" /><rect x="170" y="40" width="10" height="10" /><rect x="180" y="40" width="10" height="10" /><rect x="200" y="40" width="10" height="10" /><rect x="220" y="40" width="10" height="10" /><rect x="230" y="40" width="10" height="10" /><rect x="240" y="40" width="10" height="10" /><rect x="250" y="40" width="10" height="10" /><rect x="270" y="40" width="10" height="10" /><rect x="280" y="40" width="10" height="10" /><rect x="290" y="40" width="10" height="10" /><rect x="320" y="40" width="10" height="10" /><rect x="340" y="40" width="10" height="10" /><rect x="350" y="40" width="10" height="10" /><rect x="370" y="40" width="10" height="10" /><rect x="400" y="40" width="10" height="10" /><rect x="420" y="40" width="10" height="10" /><rect x="430" y="40" width="10" height="10" /><rect x="440" y="40" width="10" height="10" /><rect x="450" y="40" width="10" height="10" /><rect x="460" y="40" width="10" height="10" /><rect x="470" y="40" width="10" height="10" /><rect x="480" y="40" width="10" height="10" /><rect x="40" y="50" width="10" height="10" /><rect x="100" y="50" width="10" height="10" /><rect x="150" y="50" width="10" height="10" /><rect x="160" y="50" width="10" height="10" /><rect x="170" y="50" width="10" height="10" /><rect x="210" y="50" width="10" height="10" /><rect x="260" y="50" width="10" height="10" /><rect x="280" y="50" width="10" height="10" /><rect x="310" y="50" width="10" height="10" /><rect x="330" y="50" width="10" height="10" /><rect x="390" y="50" width="10" height="10" /><rect x="420" y="50" width="10" height="10" /><rect x="480" y="50" width="10" height="10" /><rect x="40" y="60" width="10" height="10" /><rect x="60" y="60" width="10" height="10" /><rect x="70" y="60" width="10" height="10" /><rect x="80" y="60" width="10" height="10" /><rect x="100" y="60" width="10" height="10" /><rect x="120" y="60" width="10" height="10" /><rect x="130" y="60" width="10" height="10" /><rect x="170" y="60" width="10" height="10" /><rect x="200" y="60" width="10" height="10" /><rect x="220" y="60" width="10" height="10" /><rect x="230" y="60" width="10" height="10" /><rect x="260" y="60" width="10" height="10" /><rect x="300" y="60" width="10" height="10" /><rect x="310" y="60" width="10" height="10" /><rect x="320" y="60" width="10" height="10" /><rect x="330" y="60" width="10" height="10" /><rect x="340" y="60" width="10" height="10" /><rect x="350" y="60" width="10" height="10" /><rect x="360" y="60" width="10" height="10" /><rect x="390" y="60" width="10" height="10" /><rect x="420" y="60" width="10" height="10" /><rect x="440" y="60" width="10" height="10" /><rect x="450" y="60" width="10" height="10" /><rect x="460" y="60" width="10" height="10" /><rect x="480" y="60" width="10" height="10" /><rect x="40" y="70" width="10" height="10" /><rect x="60" y="70" width="10" height="10" /><rect x="70" y="70" width="10" height="10" /><rect x="80" y="70" width="10" height="10" /><rect x="100" y="70" width="10" height="10" /><rect x="130" y="70" width="10" height="10" /><rect x="140" y="70" width="10" height="10" /><rect x="150" y="70" width="10" height="10" /><rect x="160" y="70" width="10" height="10" /><rect x="170" y="70" width="10" height="10" /><rect x="190" y="70" width="10" height="10" /><rect x="220" y="70" width="10" height="10" /><rect x="290" y="70" width="10" height="10" /><rect x="310" y="70" width="10" height="10" /><rect x="320" y="70" width="10" height="10" /><rect x="340" y="70" width="10" height="10" /><rect x="350" y="70" width="10" height="10" /><rect x="390" y="70" width="10" height="10" /><rect x="400" y="70" width="10" height="10" /><rect x="420" y="70" width="10" height="10" /><rect x="440" y="70" width="10" height="10" /><rect x="450" y="70" width="10" height="10" /><rect x="460" y="70" width="10" height="10" /><rect x="480" y="70" width="10" height="10" /><rect x="40" y="80" width="10" height="10" /><rect x="60" y="80" width="10" height="10" /><rect x="70" y="80" width="10" height="10" /><rect x="80" y="80" width="10" height="10" /><rect x="100" y="80" width="10" height="10" /><rect x="130" y="80" width="10" height="10" /><rect x="150" y="80" width="10" height="10" /><rect x="160" y="80" width="10" height="10" /><rect x="180" y="80" width="10" height="10" /><rect x="200" y="80" width="10" height="10" /><rect x="220" y="80" width="10" height="10" /><rect x="240" y="80" width="10" height="10" /><rect x="250" y="80" width="10" height="10" /><rect x="260" y="80" width="10" height="10" /><rect x="270" y="80" width="10" height="10" /><rect x="280" y="80" width="10" height="10" /><rect x="290" y="80" width="10" height="10" /><rect x="300" y="80" width="10" height="10" /><rect x="310" y="80" width="10" height="10" /><rect x="320" y="80" width="10" height="10" /><rect x="340" y="80" width="10" height="10" /><rect x="380" y="80" width="10" height="10" /><rect x="390" y="80" width="10" height="10" /><rect x="400" y="80" width="10" height="10" /><rect x="420" y="80" width="10" height="10" /><rect x="440" y="80" width="10" height="10" /><rect x="450" y="80" width="10" height="10" /><rect x="460" y="80" width="10" height="10" /><rect x="480" y="80" width="10" height="10" /><rect x="40" y="90" width="10" height="10" /><rect x="100" y="90" width="10" height="10" /><rect x="140" y="90" width="10" height="10" /><rect x="180" y="90" width="10" height="10" /><rect x="200" y="90" width="10" height="10" /><rect x="210" y="90" width="10" height="10" /><rect x="220" y="90" width="10" height="10" /><rect x="230" y="90" width="10" height="10" /><rect x="240" y="90" width="10" height="10" /><rect x="280" y="90" width="10" height="10" /><rect x="310" y="90" width="10" height="10" /><rect x="320" y="90" width="10" height="10" /><rect x="340" y="90" width="10" height="10" /><rect x="370" y="90" width="10" height="10" /><rect x="420" y="90" width="10" height="10" /><rect x="480" y="90" width="10" height="10" /><rect x="40" y="100" width="10" height="10" /><rect x="50" y="100" width="10" height="10" /><rect x="60" y="100" width="10" height="10" /><rect x="70" y="100" width="10" height="10" /><rect x="80" y="100" width="10" height="10" /><rect x="90" y="100" width="10" height="10" /><rect x="100" y="100" width="10" height="10" /><rect x="120" y="100" width="10" height="10" /><rect x="140" y="100" width="10" height="10" /><rect x="160" y="100" width="10" height="10" /><rect x="180" y="100" width="10" height="10" /><rect x="200" y="100" width="10" height="10" /><rect x="220" y="100" width="10" height="10" /><rect x="240" y="100" width="10" height="10" /><rect x="260" y="100" width="10" height="10" /><rect x="280" y="100" width="10" height="10" /><rect x="300" y="100" width="10" height="10" /><rect x="320" y="100" width="10" height="10" /><rect x="340" y="100" width="10" height="10" /><rect x="360" y="100" width="10" height="10" /><rect x="380" y="100" width="10" height="10" /><rect x="400" y="100" width="10" height="10" /><rect x="420" y="100" width="10" height="10" /><rect x="430" y="100" width="10" height="10" /><rect x="440" y="100" width="10" height="10" /><rect x="450" y="100" width="10" height="10" /><rect x="460" y="100" width="10" height="10" /><rect x="470" y="100" width="10" height="10" /><rect x="480" y="100" width="10" height="10" /><rect x="120" y="110" width="10" height="10" /><rect x="130" y="110" width="10" height="10" /><rect x="140" y="110" width="10" height="10" /><rect x="160" y="110" width="10" height="10" /><rect x="170" y="110" width="10" height="10" /><rect x="180" y="110" width="10" height="10" /><rect x="190" y="110" width="10" height="10" /><rect x="220" y="110" width="10" height="10" /><rect x="230" y="110" width="10" height="10" /><rect x="240" y="110" width="10" height="10" /><rect x="280" y="110" width="10" height="10" /><rect x="300" y="110" width="10" height="10" /><rect x="330" y="110" width="10" height="10" /><rect x="40" y="120" width="10" height="10" /><rect x="50" y="120" width="10" height="10" /><rect x="60" y="120" width="10" height="10" /><rect x="80" y="120" width="10" height="10" /><rect x="90" y="120" width="10" height="10" /><rect x="100" y="120" width="10" height="10" /><rect x="110" y="120" width="10" height="10" /><rect x="120" y="120" width="10" height="10" /><rect x="140" y="120" width="10" height="10" /><rect x="160" y="120" width="10" height="10" /><rect x="170" y="120" width="10" height="10" /><rect x="200" y="120" width="10" height="10" /><rect x="240" y="120" width="10" height="10" /><rect x="250" y="120" width="10" height="10" /><rect x="260" y="120" width="10" height="10" /><rect x="270" y="120" width="10" height="10" /><rect x="280" y="120" width="10" height="10" /><rect x="310" y="120" width="10" height="10" /><rect x="330" y="120" width="10" height="10" /><rect x="340" y="120" width="10" height="10" /><rect x="390" y="120" width="10" height="10" /><rect x="410" y="120" width="10" height="10" /><rect x="420" y="120" width="10" height="10" /><rect x="460" y="120" width="10" height="10" /><rect x="40" y="130" width="10" height="10" /><rect x="50" y="130" width="10" height="10" /><rect x="90" y="130" width="10" height="10" /><rect x="110" y="130" width="10" height="10" /><rect x="130" y="130" width="10" height="10" /><rect x="140" y="130" width="10" height="10" /><rect x="150" y="130" width="10" height="10" /><rect x="170" y="130" width="10" height="10" /><rect x="200" y="130" width="10" height="10" /><rect x="220" y="130" width="10" height="10" /><rect x="250" y="130" width="10" height="10" /><rect x="280" y="130" width="10" height="10" /><rect x="300" y="130" width="10" height="10" /><rect x="310" y="130" width="10" height="10" /><rect x="320" y="130" width="10" height="10" /><rect x="340" y="130" width="10" height="10" /><rect x="350" y="130" width="10" height="10" /><rect x="360" y="130" width="10" height="10" /><rect x="370" y="130" width="10" height="10" /><rect x="380" y="130" width="10" height="10" /><rect x="390" y="130" width="10" height="10" /><rect x="400" y="130" width="10" height="10" /><rect x="430" y="130" width="10" height="10" /><rect x="470" y="130" width="10" height="10" /><rect x="50" y="140" width="10" height="10" /><rect x="60" y="140" width="10" height="10" /><rect x="70" y="140" width="10" height="10" /><rect x="80" y="140" width="10" height="10" /><rect x="100" y="140" width="10" height="10" /><rect x="120" y="140" width="10" height="10" /><rect x="130" y="140" width="10" height="10" /><rect x="160" y="140" width="10" height="10" /><rect x="180" y="140" width="10" height="10" /><rect x="260" y="140" width="10" height="10" /><rect x="270" y="140" width="10" height="10" /><rect x="280" y="140" width="10" height="10" /><rect x="310" y="140" width="10" height="10" /><rect x="320" y="140" width="10" height="10" /><rect x="340" y="140" width="10" height="10" /><rect x="350" y="140" width="10" height="10" /><rect x="370" y="140" width="10" height="10" /><rect x="380" y="140" width="10" height="10" /><rect x="390" y="140" width="10" height="10" /><rect x="410" y="140" width="10" height="10" /><rect x="420" y="140" width="10" height="10" /><rect x="440" y="140" width="10" height="10" /><rect x="480" y="140" width="10" height="10" /><rect x="60" y="150" width="10" height="10" /><rect x="80" y="150" width="10" height="10" /><rect x="120" y="150" width="10" height="10" /><rect x="130" y="150" width="10" height="10" /><rect x="180" y="150" width="10" height="10" /><rect x="200" y="150" width="10" height="10" /><rect x="210" y="150" width="10" height="10" /><rect x="230" y="150" width="10" height="10" /><rect x="260" y="150" width="10" height="10" /><rect x="300" y="150" width="10" height="10" /><rect x="310" y="150" width="10" height="10" /><rect x="320" y="150" width="10" height="10" /><rect x="330" y="150" width="10" height="10" /><rect x="350" y="150" width="10" height="10" /><rect x="360" y="150" width="10" height="10" /><rect x="440" y="150" width="10" height="10" /><rect x="450" y="150" width="10" height="10" /><rect x="460" y="150" width="10" height="10" /><rect x="470" y="150" width="10" height="10" /><rect x="40" y="160" width="10" height="10" /><rect x="60" y="160" width="10" height="10" /><rect x="70" y="160" width="10" height="10" /><rect x="100" y="160" width="10" height="10" /><rect x="120" y="160" width="10" height="10" /><rect x="150" y="160" width="10" height="10" /><rect x="160" y="160" width="10" height="10" /><rect x="170" y="160" width="10" height="10" /><rect x="180" y="160" width="10" height="10" /><rect x="220" y="160" width="10" height="10" /><rect x="260" y="160" width="10" height="10" /><rect x="270" y="160" width="10" height="10" /><rect x="280" y="160" width="10" height="10" /><rect x="300" y="160" width="10" height="10" /><rect x="350" y="160" width="10" height="10" /><rect x="390" y="160" width="10" height="10" /><rect x="400" y="160" width="10" height="10" /><rect x="430" y="160" width="10" height="10" /><rect x="440" y="160" width="10" height="10" /><rect x="450" y="160" width="10" height="10" /><rect x="460" y="160" width="10" height="10" /><rect x="470" y="160" width="10" height="10" /><rect x="480" y="160" width="10" height="10" /><rect x="50" y="170" width="10" height="10" /><rect x="70" y="170" width="10" height="10" /><rect x="80" y="170" width="10" height="10" /><rect x="90" y="170" width="10" height="10" /><rect x="140" y="170" width="10" height="10" /><rect x="200" y="170" width="10" height="10" /><rect x="210" y="170" width="10" height="10" /><rect x="240" y="170" width="10" height="10" /><rect x="270" y="170" width="10" height="10" /><rect x="290" y="170" width="10" height="10" /><rect x="320" y="170" width="10" height="10" /><rect x="330" y="170" width="10" height="10" /><rect x="350" y="170" width="10" height="10" /><rect x="360" y="170" width="10" height="10" /><rect x="380" y="170" width="10" height="10" /><rect x="390" y="170" width="10" height="10" /><rect x="420" y="170" width="10" height="10" /><rect x="430" y="170" width="10" height="10" /><rect x="440" y="170" width="10" height="10" /><rect x="450" y="170" width="10" height="10" /><rect x="460" y="170" width="10" height="10" /><rect x="470" y="170" width="10" height="10" /><rect x="480" y="170" width="10" height="10" /><rect x="50" y="180" width="10" height="10" /><rect x="70" y="180" width="10" height="10" /><rect x="80" y="180" width="10" height="10" /><rect x="100" y="180" width="10" height="10" /><rect x="110" y="180" width="10" height="10" /><rect x="120" y="180" width="10" height="10" /><rect x="140" y="180" width="10" height="10" /><rect x="150" y="180" width="10" height="10" /><rect x="160" y="180" width="10" height="10" /><rect x="180" y="180" width="10" height="10" /><rect x="250" y="180" width="10" height="10" /><rect x="270" y="180" width="10" height="10" /><rect x="320" y="180" width="10" height="10" /><rect x="330" y="180" width="10" height="10" /><rect x="340" y="180" width="10" height="10" /><rect x="350" y="180" width="10" height="10" /><rect x="360" y="180" width="10" height="10" /><rect x="370" y="180" width="10" height="10" /><rect x="410" y="180" width="10" height="10" /><rect x="430" y="180" width="10" height="10" /><rect x="440" y="180" width="10" height="10" /><rect x="470" y="180" width="10" height="10" /><rect x="480" y="180" width="10" height="10" /><rect x="40" y="190" width="10" height="10" /><rect x="50" y="190" width="10" height="10" /><rect x="80" y="190" width="10" height="10" /><rect x="90" y="190" width="10" height="10" /><rect x="160" y="190" width="10" height="10" /><rect x="190" y="190" width="10" height="10" /><rect x="210" y="190" width="10" height="10" /><rect x="230" y="190" width="10" height="10" /><rect x="240" y="190" width="10" height="10" /><rect x="260" y="190" width="10" height="10" /><rect x="270" y="190" width="10" height="10" /><rect x="280" y="190" width="10" height="10" /><rect x="290" y="190" width="10" height="10" /><rect x="300" y="190" width="10" height="10" /><rect x="310" y="190" width="10" height="10" /><rect x="320" y="190" width="10" height="10" /><rect x="330" y="190" width="10" height="10" /><rect x="340" y="190" width="10" height="10" /><rect x="350" y="190" width="10" height="10" /><rect x="450" y="190" width="10" height="10" /><rect x="50" y="200" width="10" height="10" /><rect x="60" y="200" width="10" height="10" /><rect x="90" y="200" width="10" height="10" /><rect x="100" y="200" width="10" height="10" /><rect x="130" y="200" width="10" height="10" /><rect x="150" y="200" width="10" height="10" /><rect x="160" y="200" width="10" height="10" /><rect x="180" y="200" width="10" height="10" /><rect x="190" y="200" width="10" height="10" /><rect x="200" y="200" width="10" height="10" /><rect x="210" y="200" width="10" height="10" /><rect x="240" y="200" width="10" height="10" /><rect x="280" y="200" width="10" height="10" /><rect x="300" y="200" width="10" height="10" /><rect x="310" y="200" width="10" height="10" /><rect x="350" y="200" width="10" height="10" /><rect x="390" y="200" width="10" height="10" /><rect x="410" y="200" width="10" height="10" /><rect x="450" y="200" width="10" height="10" /><rect x="470" y="200" width="10" height="10" /><rect x="480" y="200" width="10" height="10" /><rect x="50" y="210" width="10" height="10" /><rect x="60" y="210" width="10" height="10" /><rect x="70" y="210" width="10" height="10" /><rect x="90" y="210" width="10" height="10" /><rect x="110" y="210" width="10" height="10" /><rect x="120" y="210" width="10" height="10" /><rect x="130" y="210" width="10" height="10" /><rect x="150" y="210" width="10" height="10" /><rect x="190" y="210" width="10" height="10" /><rect x="210" y="210" width="10" height="10" /><rect x="230" y="210" width="10" height="10" /><rect x="250" y="210" width="10" height="10" /><rect x="270" y="210" width="10" height="10" /><rect x="310" y="210" width="10" height="10" /><rect x="320" y="210" width="10" height="10" /><rect x="330" y="210" width="10" height="10" /><rect x="350" y="210" width="10" height="10" /><rect x="370" y="210" width="10" height="10" /><rect x="400" y="210" width="10" height="10" /><rect x="470" y="210" width="10" height="10" /><rect x="480" y="210" width="10" height="10" /><rect x="50" y="220" width="10" height="10" /><rect x="60" y="220" width="10" height="10" /><rect x="100" y="220" width="10" height="10" /><rect x="110" y="220" width="10" height="10" /><rect x="130" y="220" width="10" height="10" /><rect x="150" y="220" width="10" height="10" /><rect x="160" y="220" width="10" height="10" /><rect x="180" y="220" width="10" height="10" /><rect x="190" y="220" width="10" height="10" /><rect x="200" y="220" width="10" height="10" /><rect x="220" y="220" width="10" height="10" /><rect x="240" y="220" width="10" height="10" /><rect x="250" y="220" width="10" height="10" /><rect x="270" y="220" width="10" height="10" /><rect x="300" y="220" width="10" height="10" /><rect x="320" y="220" width="10" height="10" /><rect x="350" y="220" width="10" height="10" /><rect x="360" y="220" width="10" height="10" /><rect x="380" y="220" width="10" height="10" /><rect x="390" y="220" width="10" height="10" /><rect x="410" y="220" width="10" height="10" /><rect x="450" y="220" width="10" height="10" /><rect x="480" y="220" width="10" height="10" /><rect x="40" y="230" width="10" height="10" /><rect x="70" y="230" width="10" height="10" /><rect x="80" y="230" width="10" height="10" /><rect x="120" y="230" width="10" height="10" /><rect x="160" y="230" width="10" height="10" /><rect x="180" y="230" width="10" height="10" /><rect x="190" y="230" width="10" height="10" /><rect x="210" y="230" width="10" height="10" /><rect x="230" y="230" width="10" height="10" /><rect x="250" y="230" width="10" height="10" /><rect x="260" y="230" width="10" height="10" /><rect x="280" y="230" width="10" height="10" /><rect x="300" y="230" width="10" height="10" /><rect x="320" y="230" width="10" height="10" /><rect x="390" y="230" width="10" height="10" /><rect x="410" y="230" width="10" height="10" /><rect x="480" y="230" width="10" height="10" /><rect x="50" y="240" width="10" height="10" /><rect x="60" y="240" width="10" height="10" /><rect x="70" y="240" width="10" height="10" /><rect x="80" y="240" width="10" height="10" /><rect x="90" y="240" width="10" height="10" /><rect x="100" y="240" width="10" height="10" /><rect x="110" y="240" width="10" height="10" /><rect x="120" y="240" width="10" height="10" /><rect x="130" y="240" width="10" height="10" /><rect x="150" y="240" width="10" height="10" /><rect x="190" y="240" width="10" height="10" /><rect x="200" y="240" width="10" height="10" /><rect x="230" y="240" width="10" height="10" /><rect x="240" y="240" width="10" height="10" /><rect x="250" y="240" width="10" height="10" /><rect x="260" y="240" width="10" height="10" /><rect x="270" y="240" width="10" height="10" /><rect x="280" y="240" width="10" height="10" /><rect x="290" y="240" width="10" height="10" /><rect x="310" y="240" width="10" height="10" /><rect x="320" y="240" width="10" height="10" /><rect x="340" y="240" width="10" height="10" /><rect x="370" y="240" width="10" height="10" /><rect x="400" y="240" width="10" height="10" /><rect x="410" y="240" width="10" height="10" /><rect x="420" y="240" width="10" height="10" /><rect x="430" y="240" width="10" height="10" /><rect x="440" y="240" width="10" height="10" /><rect x="460" y="240" width="10" height="10" /><rect x="480" y="240" width="10" height="10" /><rect x="60" y="250" width="10" height="10" /><rect x="70" y="250" width="10" height="10" /><rect x="80" y="250" width="10" height="10" /><rect x="120" y="250" width="10" height="10" /><rect x="130" y="250" width="10" height="10" /><rect x="170" y="250" width="10" height="10" /><rect x="190" y="250" width="10" height="10" /><rect x="200" y="250" width="10" height="10" /><rect x="210" y="250" width="10" height="10" /><rect x="220" y="250" width="10" height="10" /><rect x="230" y="250" width="10" height="10" /><rect x="240" y="250" width="10" height="10" /><rect x="280" y="250" width="10" height="10" /><rect x="290" y="250" width="10" height="10" /><rect x="300" y="250" width="10" height="10" /><rect x="330" y="250" width="10" height="10" /><rect x="340" y="250" width="10" height="10" /><rect x="350" y="250" width="10" height="10" /><rect x="360" y="250" width="10" height="10" /><rect x="370" y="250" width="10" height="10" /><rect x="390" y="250" width="10" height="10" /><rect x="400" y="250" width="10" height="10" /><rect x="440" y="250" width="10" height="10" /><rect x="470" y="250" width="10" height="10" /><rect x="40" y="260" width="10" height="10" /><rect x="50" y="260" width="10" height="10" /><rect x="80" y="260" width="10" height="10" /><rect x="100" y="260" width="10" height="10" /><rect x="120" y="260" width="10" height="10" /><rect x="130" y="260" width="10" height="10" /><rect x="160" y="260" width="10" height="10" /><rect x="170" y="260" width="10" height="10" /><rect x="220" y="260" width="10" height="10" /><rect x="240" y="260" width="10" height="10" /><rect x="260" y="260" width="10" height="10" /><rect x="280" y="260" width="10" height="10" /><rect x="290" y="260" width="10" height="10" /><rect x="330" y="260" width="10" height="10" /><rect x="340" y="260" width="10" height="10" /><rect x="350" y="260" width="10" height="10" /><rect x="360" y="260" width="10" height="10" /><rect x="370" y="260" width="10" height="10" /><rect x="400" y="260" width="10" height="10" /><rect x="420" y="260" width="10" height="10" /><rect x="440" y="260" width="10" height="10" /><rect x="460" y="260" width="10" height="10" /><rect x="480" y="260" width="10" height="10" /><rect x="60" y="270" width="10" height="10" /><rect x="70" y="270" width="10" height="10" /><rect x="80" y="270" width="10" height="10" /><rect x="120" y="270" width="10" height="10" /><rect x="140" y="270" width="10" height="10" /><rect x="150" y="270" width="10" height="10" /><rect x="160" y="270" width="10" height="10" /><rect x="170" y="270" width="10" height="10" /><rect x="180" y="270" width="10" height="10" /><rect x="190" y="270" width="10" height="10" /><rect x="210" y="270" width="10" height="10" /><rect x="230" y="270" width="10" height="10" /><rect x="240" y="270" width="10" height="10" /><rect x="280" y="270" width="10" height="10" /><rect x="290" y="270" width="10" height="10" /><rect x="310" y="270" width="10" height="10" /><rect x="320" y="270" width="10" height="10" /><rect x="330" y="270" width="10" height="10" /><rect x="360" y="270" width="10" height="10" /><rect x="370" y="270" width="10" height="10" /><rect x="390" y="270" width="10" height="10" /><rect x="400" y="270" width="10" height="10" /><rect x="440" y="270" width="10" height="10" /><rect x="460" y="270" width="10" height="10" /><rect x="480" y="270" width="10" height="10" /><rect x="40" y="280" width="10" height="10" /><rect x="80" y="280" width="10" height="10" /><rect x="90" y="280" width="10" height="10" /><rect x="100" y="280" width="10" height="10" /><rect x="110" y="280" width="10" height="10" /><rect x="120" y="280" width="10" height="10" /><rect x="140" y="280" width="10" height="10" /><rect x="150" y="280" width="10" height="10" /><rect x="160" y="280" width="10" height="10" /><rect x="170" y="280" width="10" height="10" /><rect x="200" y="280" width="10" height="10" /><rect x="220" y="280" width="10" height="10" /><rect x="240" y="280" width="10" height="10" /><rect x="250" y="280" width="10" height="10" /><rect x="260" y="280" width="10" height="10" /><rect x="270" y="280" width="10" height="10" /><rect x="280" y="280" width="10" height="10" /><rect x="300" y="280" width="10" height="10" /><rect x="320" y="280" width="10" height="10" /><rect x="350" y="280" width="10" height="10" /><rect x="380" y="280" width="10" height="10" /><rect x="390" y="280" width="10" height="10" /><rect x="400" y="280" width="10" height="10" /><rect x="410" y="280" width="10" height="10" /><rect x="420" y="280" width="10" height="10" /><rect x="430" y="280" width="10" height="10" /><rect x="440" y="280" width="10" height="10" /><rect x="450" y="280" width="10" height="10" /><rect x="460" y="280" width="10" height="10" /><rect x="480" y="280" width="10" height="10" /><rect x="40" y="290" width="10" height="10" /><rect x="70" y="290" width="10" height="10" /><rect x="140" y="290" width="10" height="10" /><rect x="150" y="290" width="10" height="10" /><rect x="170" y="290" width="10" height="10" /><rect x="200" y="290" width="10" height="10" /><rect x="210" y="290" width="10" height="10" /><rect x="250" y="290" width="10" height="10" /><rect x="300" y="290" width="10" height="10" /><rect x="310" y="290" width="10" height="10" /><rect x="330" y="290" width="10" height="10" /><rect x="350" y="290" width="10" height="10" /><rect x="360" y="290" width="10" height="10" /><rect x="390" y="290" width="10" height="10" /><rect x="400" y="290" width="10" height="10" /><rect x="420" y="290" width="10" height="10" /><rect x="470" y="290" width="10" height="10" /><rect x="40" y="300" width="10" height="10" /><rect x="70" y="300" width="10" height="10" /><rect x="100" y="300" width="10" height="10" /><rect x="110" y="300" width="10" height="10" /><rect x="120" y="300" width="10" height="10" /><rect x="130" y="300" width="10" height="10" /><rect x="150" y="300" width="10" height="10" /><rect x="160" y="300" width="10" height="10" /><rect x="180" y="300" width="10" height="10" /><rect x="240" y="300" width="10" height="10" /><rect x="250" y="300" width="10" height="10" /><rect x="260" y="300" width="10" height="10" /><rect x="280" y="300" width="10" height="10" /><rect x="290" y="300" width="10" height="10" /><rect x="300" y="300" width="10" height="10" /><rect x="340" y="300" width="10" height="10" /><rect x="360" y="300" width="10" height="10" /><rect x="380" y="300" width="10" height="10" /><rect x="410" y="300" width="10" height="10" /><rect x="420" y="300" width="10" height="10" /><rect x="430" y="300" width="10" height="10" /><rect x="480" y="300" width="10" height="10" /><rect x="40" y="310" width="10" height="10" /><rect x="110" y="310" width="10" height="10" /><rect x="120" y="310" width="10" height="10" /><rect x="130" y="310" width="10" height="10" /><rect x="140" y="310" width="10" height="10" /><rect x="150" y="310" width="10" height="10" /><rect x="180" y="310" width="10" height="10" /><rect x="200" y="310" width="10" height="10" /><rect x="280" y="310" width="10" height="10" /><rect x="300" y="310" width="10" height="10" /><rect x="320" y="310" width="10" height="10" /><rect x="330" y="310" width="10" height="10" /><rect x="370" y="310" width="10" height="10" /><rect x="390" y="310" width="10" height="10" /><rect x="410" y="310" width="10" height="10" /><rect x="420" y="310" width="10" height="10" /><rect x="460" y="310" width="10" height="10" /><rect x="470" y="310" width="10" height="10" /><rect x="40" y="320" width="10" height="10" /><rect x="50" y="320" width="10" height="10" /><rect x="70" y="320" width="10" height="10" /><rect x="100" y="320" width="10" height="10" /><rect x="110" y="320" width="10" height="10" /><rect x="150" y="320" width="10" height="10" /><rect x="160" y="320" width="10" height="10" /><rect x="180" y="320" width="10" height="10" /><rect x="200" y="320" width="10" height="10" /><rect x="210" y="320" width="10" height="10" /><rect x="220" y="320" width="10" height="10" /><rect x="240" y="320" width="10" height="10" /><rect x="290" y="320" width="10" height="10" /><rect x="310" y="320" width="10" height="10" /><rect x="330" y="320" width="10" height="10" /><rect x="340" y="320" width="10" height="10" /><rect x="350" y="320" width="10" height="10" /><rect x="420" y="320" width="10" height="10" /><rect x="440" y="320" width="10" height="10" /><rect x="450" y="320" width="10" height="10" /><rect x="480" y="320" width="10" height="10" /><rect x="60" y="330" width="10" height="10" /><rect x="80" y="330" width="10" height="10" /><rect x="110" y="330" width="10" height="10" /><rect x="120" y="330" width="10" height="10" /><rect x="130" y="330" width="10" height="10" /><rect x="170" y="330" width="10" height="10" /><rect x="220" y="330" width="10" height="10" /><rect x="230" y="330" width="10" height="10" /><rect x="260" y="330" width="10" height="10" /><rect x="290" y="330" width="10" height="10" /><rect x="300" y="330" width="10" height="10" /><rect x="310" y="330" width="10" height="10" /><rect x="320" y="330" width="10" height="10" /><rect x="330" y="330" width="10" height="10" /><rect x="350" y="330" width="10" height="10" /><rect x="370" y="330" width="10" height="10" /><rect x="390" y="330" width="10" height="10" /><rect x="400" y="330" width="10" height="10" /><rect x="410" y="330" width="10" height="10" /><rect x="420" y="330" width="10" height="10" /><rect x="430" y="330" width="10" height="10" /><rect x="450" y="330" width="10" height="10" /><rect x="40" y="340" width="10" height="10" /><rect x="60" y="340" width="10" height="10" /><rect x="80" y="340" width="10" height="10" /><rect x="90" y="340" width="10" height="10" /><rect x="100" y="340" width="10" height="10" /><rect x="120" y="340" width="10" height="10" /><rect x="130" y="340" width="10" height="10" /><rect x="150" y="340" width="10" height="10" /><rect x="180" y="340" width="10" height="10" /><rect x="190" y="340" width="10" height="10" /><rect x="210" y="340" width="10" height="10" /><rect x="240" y="340" width="10" height="10" /><rect x="250" y="340" width="10" height="10" /><rect x="260" y="340" width="10" height="10" /><rect x="280" y="340" width="10" height="10" /><rect x="300" y="340" width="10" height="10" /><rect x="320" y="340" width="10" height="10" /><rect x="340" y="340" width="10" height="10" /><rect x="350" y="340" width="10" height="10" /><rect x="360" y="340" width="10" height="10" /><rect x="380" y="340" width="10" height="10" /><rect x="400" y="340" width="10" height="10" /><rect x="430" y="340" width="10" height="10" /><rect x="440" y="340" width="10" height="10" /><rect x="460" y="340" width="10" height="10" /><rect x="480" y="340" width="10" height="10" /><rect x="40" y="350" width="10" height="10" /><rect x="60" y="350" width="10" height="10" /><rect x="120" y="350" width="10" height="10" /><rect x="140" y="350" width="10" height="10" /><rect x="150" y="350" width="10" height="10" /><rect x="190" y="350" width="10" height="10" /><rect x="200" y="350" width="10" height="10" /><rect x="210" y="350" width="10" height="10" /><rect x="220" y="350" width="10" height="10" /><rect x="230" y="350" width="10" height="10" /><rect x="260" y="350" width="10" height="10" /><rect x="300" y="350" width="10" height="10" /><rect x="310" y="350" width="10" height="10" /><rect x="330" y="350" width="10" height="10" /><rect x="350" y="350" width="10" height="10" /><rect x="370" y="350" width="10" height="10" /><rect x="390" y="350" width="10" height="10" /><rect x="400" y="350" width="10" height="10" /><rect x="410" y="350" width="10" height="10" /><rect x="430" y="350" width="10" height="10" /><rect x="450" y="350" width="10" height="10" /><rect x="460" y="350" width="10" height="10" /><rect x="480" y="350" width="10" height="10" /><rect x="40" y="360" width="10" height="10" /><rect x="60" y="360" width="10" height="10" /><rect x="90" y="360" width="10" height="10" /><rect x="100" y="360" width="10" height="10" /><rect x="140" y="360" width="10" height="10" /><rect x="160" y="360" width="10" height="10" /><rect x="180" y="360" width="10" height="10" /><rect x="190" y="360" width="10" height="10" /><rect x="200" y="360" width="10" height="10" /><rect x="210" y="360" width="10" height="10" /><rect x="240" y="360" width="10" height="10" /><rect x="250" y="360" width="10" height="10" /><rect x="260" y="360" width="10" height="10" /><rect x="310" y="360" width="10" height="10" /><rect x="340" y="360" width="10" height="10" /><rect x="370" y="360" width="10" height="10" /><rect x="380" y="360" width="10" height="10" /><rect x="420" y="360" width="10" height="10" /><rect x="440" y="360" width="10" height="10" /><rect x="450" y="360" width="10" height="10" /><rect x="460" y="360" width="10" height="10" /><rect x="480" y="360" width="10" height="10" /><rect x="60" y="370" width="10" height="10" /><rect x="70" y="370" width="10" height="10" /><rect x="80" y="370" width="10" height="10" /><rect x="90" y="370" width="10" height="10" /><rect x="120" y="370" width="10" height="10" /><rect x="130" y="370" width="10" height="10" /><rect x="160" y="370" width="10" height="10" /><rect x="190" y="370" width="10" height="10" /><rect x="210" y="370" width="10" height="10" /><rect x="230" y="370" width="10" height="10" /><rect x="240" y="370" width="10" height="10" /><rect x="250" y="370" width="10" height="10" /><rect x="280" y="370" width="10" height="10" /><rect x="300" y="370" width="10" height="10" /><rect x="310" y="370" width="10" height="10" /><rect x="330" y="370" width="10" height="10" /><rect x="350" y="370" width="10" height="10" /><rect x="370" y="370" width="10" height="10" /><rect x="380" y="370" width="10" height="10" /><rect x="420" y="370" width="10" height="10" /><rect x="430" y="370" width="10" height="10" /><rect x="440" y="370" width="10" height="10" /><rect x="470" y="370" width="10" height="10" /><rect x="80" y="380" width="10" height="10" /><rect x="100" y="380" width="10" height="10" /><rect x="110" y="380" width="10" height="10" /><rect x="130" y="380" width="10" height="10" /><rect x="180" y="380" width="10" height="10" /><rect x="190" y="380" width="10" height="10" /><rect x="200" y="380" width="10" height="10" /><rect x="210" y="380" width="10" height="10" /><rect x="240" y="380" width="10" height="10" /><rect x="260" y="380" width="10" height="10" /><rect x="280" y="380" width="10" height="10" /><rect x="300" y="380" width="10" height="10" /><rect x="310" y="380" width="10" height="10" /><rect x="330" y="380" width="10" height="10" /><rect x="340" y="380" width="10" height="10" /><rect x="350" y="380" width="10" height="10" /><rect x="380" y="380" width="10" height="10" /><rect x="420" y="380" width="10" height="10" /><rect x="440" y="380" width="10" height="10" /><rect x="450" y="380" width="10" height="10" /><rect x="480" y="380" width="10" height="10" /><rect x="50" y="390" width="10" height="10" /><rect x="60" y="390" width="10" height="10" /><rect x="70" y="390" width="10" height="10" /><rect x="80" y="390" width="10" height="10" /><rect x="110" y="390" width="10" height="10" /><rect x="130" y="390" width="10" height="10" /><rect x="160" y="390" width="10" height="10" /><rect x="180" y="390" width="10" height="10" /><rect x="190" y="390" width="10" height="10" /><rect x="220" y="390" width="10" height="10" /><rect x="250" y="390" width="10" height="10" /><rect x="280" y="390" width="10" height="10" /><rect x="290" y="390" width="10" height="10" /><rect x="300" y="390" width="10" height="10" /><rect x="310" y="390" width="10" height="10" /><rect x="330" y="390" width="10" height="10" /><rect x="350" y="390" width="10" height="10" /><rect x="410" y="390" width="10" height="10" /><rect x="450" y="390" width="10" height="10" /><rect x="40" y="400" width="10" height="10" /><rect x="70" y="400" width="10" height="10" /><rect x="80" y="400" width="10" height="10" /><rect x="100" y="400" width="10" height="10" /><rect x="110" y="400" width="10" height="10" /><rect x="120" y="400" width="10" height="10" /><rect x="130" y="400" width="10" height="10" /><rect x="180" y="400" width="10" height="10" /><rect x="240" y="400" width="10" height="10" /><rect x="250" y="400" width="10" height="10" /><rect x="260" y="400" width="10" height="10" /><rect x="270" y="400" width="10" height="10" /><rect x="280" y="400" width="10" height="10" /><rect x="300" y="400" width="10" height="10" /><rect x="310" y="400" width="10" height="10" /><rect x="320" y="400" width="10" height="10" /><rect x="340" y="400" width="10" height="10" /><rect x="360" y="400" width="10" height="10" /><rect x="390" y="400" width="10" height="10" /><rect x="400" y="400" width="10" height="10" /><rect x="410" y="400" width="10" height="10" /><rect x="420" y="400" width="10" height="10" /><rect x="430" y="400" width="10" height="10" /><rect x="440" y="400" width="10" height="10" /><rect x="470" y="400" width="10" height="10" /><rect x="480" y="400" width="10" height="10" /><rect x="120" y="410" width="10" height="10" /><rect x="130" y="410" width="10" height="10" /><rect x="150" y="410" width="10" height="10" /><rect x="170" y="410" width="10" height="10" /><rect x="180" y="410" width="10" height="10" /><rect x="190" y="410" width="10" height="10" /><rect x="220" y="410" width="10" height="10" /><rect x="230" y="410" width="10" height="10" /><rect x="240" y="410" width="10" height="10" /><rect x="280" y="410" width="10" height="10" /><rect x="300" y="410" width="10" height="10" /><rect x="340" y="410" width="10" height="10" /><rect x="350" y="410" width="10" height="10" /><rect x="360" y="410" width="10" height="10" /><rect x="400" y="410" width="10" height="10" /><rect x="440" y="410" width="10" height="10" /><rect x="460" y="410" width="10" height="10" /><rect x="40" y="420" width="10" height="10" /><rect x="50" y="420" width="10" height="10" /><rect x="60" y="420" width="10" height="10" /><rect x="70" y="420" width="10" height="10" /><rect x="80" y="420" width="10" height="10" /><rect x="90" y="420" width="10" height="10" /><rect x="100" y="420" width="10" height="10" /><rect x="120" y="420" width="10" height="10" /><rect x="140" y="420" width="10" height="10" /><rect x="150" y="420" width="10" height="10" /><rect x="160" y="420" width="10" height="10" /><rect x="170" y="420" width="10" height="10" /><rect x="220" y="420" width="10" height="10" /><rect x="230" y="420" width="10" height="10" /><rect x="240" y="420" width="10" height="10" /><rect x="260" y="420" width="10" height="10" /><rect x="280" y="420" width="10" height="10" /><rect x="320" y="420" width="10" height="10" /><rect x="340" y="420" width="10" height="10" /><rect x="360" y="420" width="10" height="10" /><rect x="380" y="420" width="10" height="10" /><rect x="400" y="420" width="10" height="10" /><rect x="420" y="420" width="10" height="10" /><rect x="440" y="420" width="10" height="10" /><rect x="460" y="420" width="10" height="10" /><rect x="40" y="430" width="10" height="10" /><rect x="100" y="430" width="10" height="10" /><rect x="120" y="430" width="10" height="10" /><rect x="140" y="430" width="10" height="10" /><rect x="170" y="430" width="10" height="10" /><rect x="180" y="430" width="10" height="10" /><rect x="200" y="430" width="10" height="10" /><rect x="240" y="430" width="10" height="10" /><rect x="280" y="430" width="10" height="10" /><rect x="300" y="430" width="10" height="10" /><rect x="320" y="430" width="10" height="10" /><rect x="330" y="430" width="10" height="10" /><rect x="380" y="430" width="10" height="10" /><rect x="400" y="430" width="10" height="10" /><rect x="440" y="430" width="10" height="10" /><rect x="450" y="430" width="10" height="10" /><rect x="460" y="430" width="10" height="10" /><rect x="480" y="430" width="10" height="10" /><rect x="40" y="440" width="10" height="10" /><rect x="60" y="440" width="10" height="10" /><rect x="70" y="440" width="10" height="10" /><rect x="80" y="440" width="10" height="10" /><rect x="100" y="440" width="10" height="10" /><rect x="120" y="440" width="10" height="10" /><rect x="130" y="440" width="10" height="10" /><rect x="140" y="440" width="10" height="10" /><rect x="150" y="440" width="10" height="10" /><rect x="160" y="440" width="10" height="10" /><rect x="170" y="440" width="10" height="10" /><rect x="200" y="440" width="10" height="10" /><rect x="220" y="440" width="10" height="10" /><rect x="240" y="440" width="10" height="10" /><rect x="250" y="440" width="10" height="10" /><rect x="260" y="440" width="10" height="10" /><rect x="270" y="440" width="10" height="10" /><rect x="280" y="440" width="10" height="10" /><rect x="300" y="440" width="10" height="10" /><rect x="320" y="440" width="10" height="10" /><rect x="340" y="440" width="10" height="10" /><rect x="360" y="440" width="10" height="10" /><rect x="370" y="440" width="10" height="10" /><rect x="390" y="440" width="10" height="10" /><rect x="400" y="440" width="10" height="10" /><rect x="410" y="440" width="10" height="10" /><rect x="420" y="440" width="10" height="10" /><rect x="430" y="440" width="10" height="10" /><rect x="440" y="440" width="10" height="10" /><rect x="460" y="440" width="10" height="10" /><rect x="480" y="440" width="10" height="10" /><rect x="40" y="450" width="10" height="10" /><rect x="60" y="450" width="10" height="10" /><rect x="70" y="450" width="10" height="10" /><rect x="80" y="450" width="10" height="10" /><rect x="100" y="450" width="10" height="10" /><rect x="130" y="450" width="10" height="10" /><rect x="150" y="450" width="10" height="10" /><rect x="170" y="450" width="10" height="10" /><rect x="200" y="450" width="10" height="10" /><rect x="270" y="450" width="10" height="10" /><rect x="330" y="450" width="10" height="10" /><rect x="370" y="450" width="10" height="10" /><rect x="410" y="450" width="10" height="10" /><rect x="420" y="450" width="10" height="10" /><rect x="440" y="450" width="10" height="10" /><rect x="450" y="450" width="10" height="10" /><rect x="470" y="450" width="10" height="10" /><rect x="40" y="460" width="10" height="10" /><rect x="60" y="460" width="10" height="10" /><rect x="70" y="460" width="10" height="10" /><rect x="80" y="460" width="10" height="10" /><rect x="100" y="460" width="10" height="10" /><rect x="120" y="460" width="10" height="10" /><rect x="130" y="460" width="10" height="10" /><rect x="150" y="460" width="10" height="10" /><rect x="160" y="460" width="10" height="10" /><rect x="170" y="460" width="10" height="10" /><rect x="180" y="460" width="10" height="10" /><rect x="210" y="460" width="10" height="10" /><rect x="220" y="460" width="10" height="10" /><rect x="230" y="460" width="10" height="10" /><rect x="260" y="460" width="10" height="10" /><rect x="280" y="460" width="10" height="10" /><rect x="300" y="460" width="10" height="10" /><rect x="310" y="460" width="10" height="10" /><rect x="320" y="460" width="10" height="10" /><rect x="330" y="460" width="10" height="10" /><rect x="350" y="460" width="10" height="10" /><rect x="380" y="460" width="10" height="10" /><rect x="400" y="460" width="10" height="10" /><rect x="430" y="460" width="10" height="10" /><rect x="440" y="460" width="10" height="10" /><rect x="480" y="460" width="10" height="10" /><rect x="40" y="470" width="10" height="10" /><rect x="100" y="470" width="10" height="10" /><rect x="120" y="470" width="10" height="10" /><rect x="130" y="470" width="10" height="10" /><rect x="150" y="470" width="10" height="10" /><rect x="170" y="470" width="10" height="10" /><rect x="200" y="470" width="10" height="10" /><rect x="230" y="470" width="10" height="10" /><rect x="260" y="470" width="10" height="10" /><rect x="270" y="470" width="10" height="10" /><rect x="290" y="470" width="10" height="10" /><rect x="310" y="470" width="10" height="10" /><rect x="400" y="470" width="10" height="10" /><rect x="420" y="470" width="10" height="10" /><rect x="430" y="470" width="10" height="10" /><rect x="450" y="470" width="10" height="10" /><rect x="40" y="480" width="10" height="10" /><rect x="50" y="480" width="10" height="10" /><rect x="60" y="480" width="10" height="10" /><rect x="70" y="480" width="10" height="10" /><rect x="80" y="480" width="10" height="10" /><rect x="90" y="480" width="10" height="10" /><rect x="100" y="480" width="10" height="10" /><rect x="120" y="480" width="10" height="10" /><rect x="130" y="480" width="10" height="10" /><rect x="140" y="480" width="10" height="10" /><rect x="180" y="480" width="10" height="10" /><rect x="200" y="480" width="10" height="10" /><rect x="220" y="480" width="10" height="10" /><rect x="230" y="480" width="10" height="10" /><rect x="270" y="480" width="10" height="10" /><rect x="300" y="480" width="10" height="10" /><rect x="320" y="480" width="10" height="10" /><rect x="350" y="480" width="10" height="10" /><rect x="360" y="480" width="10" height="10" /><rect x="400" y="480" width="10" height="10" /><rect x="410" y="480" width="10" height="10" /><rect x="440" y="480" width="10" height="10" /><rect x="460" y="480" width="10" height="10" /><rect x="480" y="480" width="10" height="10" /></svg>